<svg class="diagram-root" style="background: #f5f6f6" xmlns="http://www.w3.org/2000/svg" xmlns:xlink="http://www.w3.org/1999/xlink"><style>.diagram-root { font-family: "Helvetica Neue", sans-serif; font-size: 12px; } .t { overflow: visible; } .t-bg { y: 40; fill: #fff;   } .th { fill: #005aa0;   } .tht { fill: #fff; font-size: 14px;  } .tf { fill: #323c46; overflow: visible; } .tf.pk { fill: #005aa0; font-weight: bold; } .tf.fk { font-weight: bold; } .ty { fill: #adb1b5; font-weight: normal; text-anchor: end; } .r { fill: transparent; stroke: #c3c3c3; stroke-width: 1; } .l { stroke: 1; } .i { fill: #c2c7ce; stroke: #c2c7ce; } .i.ix { fill: #afb3b6; stroke: #000; } .fa { fill: transparent; overflow: visible; } .fa .bg.hover { fill: #f7f7f7; } .c { cy: 12; r: 4; stroke: #d2d2dc; fill: #d2d2dc; } .hr { fill: transparent; stroke: #323c46; stroke-opacity: 0.035; stroke-width: 13; } .dc { stroke: #fa5a3c; fill: #fa5a3c; } .x { stroke: white; stroke-width: 1; } .hl .th { fill: #1b9bff; } .hl .tht {  } .fhl .bg { fill: #e7f4ff; } .fhls .bg {  } .r.hl { stroke: #1b9bff; } .dim { opacity: 0.25; }</style><g class="drawing-wrapper" transform="translate(-63.6666666666666, 1.1111111111111533) scale(1,1)"><g class="rs"><path d="M 547.22 164.78 m -1, 0 a 1,1 0 1,0 2,0 a 1,1 0 1,0 -2,0 M 547.22 164.78 m -0.5, 0 a 0.5,0.5 0 1,0 1,0 a 0.5,0.5 0 1,0 -1,0  M547.22 164.78 L547.22 164.78 535.22 164.78 M 547.22 170.78 m -1, 0 a 1,1 0 1,0 2,0 a 1,1 0 1,0 -2,0 M 547.22 170.78 m -0.5, 0 a 0.5,0.5 0 1,0 1,0 a 0.5,0.5 0 1,0 -1,0  M547.22 170.78 L547.22 170.78 540.22 164.78 547.22 158.78 M 547.22 158.78 m -1, 0 a 1,1 0 1,0 2,0 a 1,1 0 1,0 -2,0 M 547.22 158.78 m -0.5, 0 a 0.5,0.5 0 1,0 1,0 a 0.5,0.5 0 1,0 -1,0  M535.22 164.78 Q 495.11 164.78, 455 128.67 T 374.78 92.56 M 362.78 92.56 m -1, 0 a 1,1 0 1,0 2,0 a 1,1 0 1,0 -2,0 M 362.78 92.56 m -0.5, 0 a 0.5,0.5 0 1,0 1,0 a 0.5,0.5 0 1,0 -1,0  M362.78 92.56 L362.78 92.56 374.78 92.56 M368.78 98.56 L368.78 98.56 368.78 86.56" id="h2267654659" class="r"></path><path d="M 228.67 509.89 m -1, 0 a 1,1 0 1,0 2,0 a 1,1 0 1,0 -2,0 M 228.67 509.89 m -0.5, 0 a 0.5,0.5 0 1,0 1,0 a 0.5,0.5 0 1,0 -1,0  M228.67 509.89 L228.67 509.89 240.67 509.89 M 228.67 515.89 m -1, 0 a 1,1 0 1,0 2,0 a 1,1 0 1,0 -2,0 M 228.67 515.89 m -0.5, 0 a 0.5,0.5 0 1,0 1,0 a 0.5,0.5 0 1,0 -1,0  M228.67 515.89 L228.67 515.89 235.67 509.89 228.67 503.89 M 228.67 503.89 m -1, 0 a 1,1 0 1,0 2,0 a 1,1 0 1,0 -2,0 M 228.67 503.89 m -0.5, 0 a 0.5,0.5 0 1,0 1,0 a 0.5,0.5 0 1,0 -1,0  M240.67 509.89 Q 388.61 509.89, 536.56 297.89 T 832.44 85.89 M 844.44 85.89 m -1, 0 a 1,1 0 1,0 2,0 a 1,1 0 1,0 -2,0 M 844.44 85.89 m -0.5, 0 a 0.5,0.5 0 1,0 1,0 a 0.5,0.5 0 1,0 -1,0  M844.44 85.89 L844.44 85.89 832.44 85.89 M838.44 91.89 L838.44 91.89 838.44 79.89" id="h3311237549" class="r"></path><path d="M 228.67 509.89 m -1, 0 a 1,1 0 1,0 2,0 a 1,1 0 1,0 -2,0 M 228.67 509.89 m -0.5, 0 a 0.5,0.5 0 1,0 1,0 a 0.5,0.5 0 1,0 -1,0  M228.67 509.89 L228.67 509.89 240.67 509.89 M 228.67 515.89 m -1, 0 a 1,1 0 1,0 2,0 a 1,1 0 1,0 -2,0 M 228.67 515.89 m -0.5, 0 a 0.5,0.5 0 1,0 1,0 a 0.5,0.5 0 1,0 -1,0  M228.67 515.89 L228.67 515.89 235.67 509.89 228.67 503.89 M 228.67 503.89 m -1, 0 a 1,1 0 1,0 2,0 a 1,1 0 1,0 -2,0 M 228.67 503.89 m -0.5, 0 a 0.5,0.5 0 1,0 1,0 a 0.5,0.5 0 1,0 -1,0  M240.67 509.89 Q 314.31 509.89, 387.95 312.33 T 535.22 114.78 M 547.22 114.78 m -1, 0 a 1,1 0 1,0 2,0 a 1,1 0 1,0 -2,0 M 547.22 114.78 m -0.5, 0 a 0.5,0.5 0 1,0 1,0 a 0.5,0.5 0 1,0 -1,0  M547.22 114.78 L547.22 114.78 535.22 114.78 M541.22 120.78 L541.22 120.78 541.22 108.78" id="h1810329816" class="r"></path><path d="M 545.44 504.78 m -1, 0 a 1,1 0 1,0 2,0 a 1,1 0 1,0 -2,0 M 545.44 504.78 m -0.5, 0 a 0.5,0.5 0 1,0 1,0 a 0.5,0.5 0 1,0 -1,0  M545.44 504.78 L545.44 504.78 557.44 504.78 M 545.44 510.78 m -1, 0 a 1,1 0 1,0 2,0 a 1,1 0 1,0 -2,0 M 545.44 510.78 m -0.5, 0 a 0.5,0.5 0 1,0 1,0 a 0.5,0.5 0 1,0 -1,0  M545.44 510.78 L545.44 510.78 552.44 504.78 545.44 498.78 M 545.44 498.78 m -1, 0 a 1,1 0 1,0 2,0 a 1,1 0 1,0 -2,0 M 545.44 498.78 m -0.5, 0 a 0.5,0.5 0 1,0 1,0 a 0.5,0.5 0 1,0 -1,0  M557.44 504.78 Q 626.19 504.78, 694.94 295.33 T 832.44 85.89 M 844.44 85.89 m -1, 0 a 1,1 0 1,0 2,0 a 1,1 0 1,0 -2,0 M 844.44 85.89 m -0.5, 0 a 0.5,0.5 0 1,0 1,0 a 0.5,0.5 0 1,0 -1,0  M844.44 85.89 L844.44 85.89 832.44 85.89 M838.44 91.89 L838.44 91.89 838.44 79.89" id="h429768052" class="r"></path><path d="M 545.44 504.78 m -1, 0 a 1,1 0 1,0 2,0 a 1,1 0 1,0 -2,0 M 545.44 504.78 m -0.5, 0 a 0.5,0.5 0 1,0 1,0 a 0.5,0.5 0 1,0 -1,0  M545.44 504.78 L545.44 504.78 557.44 504.78 M 545.44 510.78 m -1, 0 a 1,1 0 1,0 2,0 a 1,1 0 1,0 -2,0 M 545.44 510.78 m -0.5, 0 a 0.5,0.5 0 1,0 1,0 a 0.5,0.5 0 1,0 -1,0  M545.44 510.78 L545.44 510.78 552.44 504.78 545.44 498.78 M 545.44 498.78 m -1, 0 a 1,1 0 1,0 2,0 a 1,1 0 1,0 -2,0 M 545.44 498.78 m -0.5, 0 a 0.5,0.5 0 1,0 1,0 a 0.5,0.5 0 1,0 -1,0  M557.44 504.78 C 779.888 504.78, 715.22 114.78, 665.22 114.78 M 653.22 114.78 m -1, 0 a 1,1 0 1,0 2,0 a 1,1 0 1,0 -2,0 M 653.22 114.78 m -0.5, 0 a 0.5,0.5 0 1,0 1,0 a 0.5,0.5 0 1,0 -1,0  M653.22 114.78 L653.22 114.78 665.22 114.78 M659.22 120.78 L659.22 120.78 659.22 108.78" id="h803437076" class="r"></path><path d="M 545.44 504.78 m -1, 0 a 1,1 0 1,0 2,0 a 1,1 0 1,0 -2,0 M 545.44 504.78 m -0.5, 0 a 0.5,0.5 0 1,0 1,0 a 0.5,0.5 0 1,0 -1,0  M545.44 504.78 L545.44 504.78 557.44 504.78 M 545.44 510.78 m -1, 0 a 1,1 0 1,0 2,0 a 1,1 0 1,0 -2,0 M 545.44 510.78 m -0.5, 0 a 0.5,0.5 0 1,0 1,0 a 0.5,0.5 0 1,0 -1,0  M545.44 510.78 L545.44 510.78 552.44 504.78 545.44 498.78 M 545.44 498.78 m -1, 0 a 1,1 0 1,0 2,0 a 1,1 0 1,0 -2,0 M 545.44 498.78 m -0.5, 0 a 0.5,0.5 0 1,0 1,0 a 0.5,0.5 0 1,0 -1,0  M557.44 504.78 C 607.44 504.78, 717.0360000000001 92.56, 374.78 92.56 M 362.78 92.56 m -1, 0 a 1,1 0 1,0 2,0 a 1,1 0 1,0 -2,0 M 362.78 92.56 m -0.5, 0 a 0.5,0.5 0 1,0 1,0 a 0.5,0.5 0 1,0 -1,0  M362.78 92.56 L362.78 92.56 374.78 92.56 M368.78 98.56 L368.78 98.56 368.78 86.56" id="h3446473744" class="r"></path><path d="M 869.33 503.67 m -1, 0 a 1,1 0 1,0 2,0 a 1,1 0 1,0 -2,0 M 869.33 503.67 m -0.5, 0 a 0.5,0.5 0 1,0 1,0 a 0.5,0.5 0 1,0 -1,0  M869.33 503.67 L869.33 503.67 881.33 503.67 M 869.33 509.67 m -1, 0 a 1,1 0 1,0 2,0 a 1,1 0 1,0 -2,0 M 869.33 509.67 m -0.5, 0 a 0.5,0.5 0 1,0 1,0 a 0.5,0.5 0 1,0 -1,0  M869.33 509.67 L869.33 509.67 876.33 503.67 869.33 497.67 M 869.33 497.67 m -1, 0 a 1,1 0 1,0 2,0 a 1,1 0 1,0 -2,0 M 869.33 497.67 m -0.5, 0 a 0.5,0.5 0 1,0 1,0 a 0.5,0.5 0 1,0 -1,0  M881.33 503.67 C 1109.106 503.67, 1042.44 85.89, 992.44 85.89 M 980.44 85.89 m -1, 0 a 1,1 0 1,0 2,0 a 1,1 0 1,0 -2,0 M 980.44 85.89 m -0.5, 0 a 0.5,0.5 0 1,0 1,0 a 0.5,0.5 0 1,0 -1,0  M980.44 85.89 L980.44 85.89 992.44 85.89 M986.44 91.89 L986.44 91.89 986.44 79.89" id="h3805075455" class="r"></path><path d="M 713.33 503.67 m -1, 0 a 1,1 0 1,0 2,0 a 1,1 0 1,0 -2,0 M 713.33 503.67 m -0.5, 0 a 0.5,0.5 0 1,0 1,0 a 0.5,0.5 0 1,0 -1,0  M713.33 503.67 L713.33 503.67 701.33 503.67 M 713.33 509.67 m -1, 0 a 1,1 0 1,0 2,0 a 1,1 0 1,0 -2,0 M 713.33 509.67 m -0.5, 0 a 0.5,0.5 0 1,0 1,0 a 0.5,0.5 0 1,0 -1,0  M713.33 509.67 L713.33 509.67 706.33 503.67 713.33 497.67 M 713.33 497.67 m -1, 0 a 1,1 0 1,0 2,0 a 1,1 0 1,0 -2,0 M 713.33 497.67 m -0.5, 0 a 0.5,0.5 0 1,0 1,0 a 0.5,0.5 0 1,0 -1,0  M701.33 503.67 Q 619.69 503.67, 538.06 298.12 T 374.78 92.56 M 362.78 92.56 m -1, 0 a 1,1 0 1,0 2,0 a 1,1 0 1,0 -2,0 M 362.78 92.56 m -0.5, 0 a 0.5,0.5 0 1,0 1,0 a 0.5,0.5 0 1,0 -1,0  M362.78 92.56 L362.78 92.56 374.78 92.56 M368.78 98.56 L368.78 98.56 368.78 86.56" id="h1210281544" class="r"></path><path d="M 1043.89 502.56 m -1, 0 a 1,1 0 1,0 2,0 a 1,1 0 1,0 -2,0 M 1043.89 502.56 m -0.5, 0 a 0.5,0.5 0 1,0 1,0 a 0.5,0.5 0 1,0 -1,0  M1043.89 502.56 L1043.89 502.56 1031.89 502.56 M 1043.89 508.56 m -1, 0 a 1,1 0 1,0 2,0 a 1,1 0 1,0 -2,0 M 1043.89 508.56 m -0.5, 0 a 0.5,0.5 0 1,0 1,0 a 0.5,0.5 0 1,0 -1,0  M1043.89 508.56 L1043.89 508.56 1036.89 502.56 1043.89 496.56 M 1043.89 496.56 m -1, 0 a 1,1 0 1,0 2,0 a 1,1 0 1,0 -2,0 M 1043.89 496.56 m -0.5, 0 a 0.5,0.5 0 1,0 1,0 a 0.5,0.5 0 1,0 -1,0  M1031.89 502.56 C 662.77 502.56, 782.44 85.89, 832.44 85.89 M 844.44 85.89 m -1, 0 a 1,1 0 1,0 2,0 a 1,1 0 1,0 -2,0 M 844.44 85.89 m -0.5, 0 a 0.5,0.5 0 1,0 1,0 a 0.5,0.5 0 1,0 -1,0  M844.44 85.89 L844.44 85.89 832.44 85.89 M838.44 91.89 L838.44 91.89 838.44 79.89" id="h1059944355" class="r"></path><path d="M 1043.89 502.56 m -1, 0 a 1,1 0 1,0 2,0 a 1,1 0 1,0 -2,0 M 1043.89 502.56 m -0.5, 0 a 0.5,0.5 0 1,0 1,0 a 0.5,0.5 0 1,0 -1,0  M1043.89 502.56 L1043.89 502.56 1031.89 502.56 M 1043.89 508.56 m -1, 0 a 1,1 0 1,0 2,0 a 1,1 0 1,0 -2,0 M 1043.89 508.56 m -0.5, 0 a 0.5,0.5 0 1,0 1,0 a 0.5,0.5 0 1,0 -1,0  M1043.89 508.56 L1043.89 508.56 1036.89 502.56 1043.89 496.56 M 1043.89 496.56 m -1, 0 a 1,1 0 1,0 2,0 a 1,1 0 1,0 -2,0 M 1043.89 496.56 m -0.5, 0 a 0.5,0.5 0 1,0 1,0 a 0.5,0.5 0 1,0 -1,0  M1031.89 502.56 Q 940.23 502.56, 848.56 308.67 T 665.22 114.78 M 653.22 114.78 m -1, 0 a 1,1 0 1,0 2,0 a 1,1 0 1,0 -2,0 M 653.22 114.78 m -0.5, 0 a 0.5,0.5 0 1,0 1,0 a 0.5,0.5 0 1,0 -1,0  M653.22 114.78 L653.22 114.78 665.22 114.78 M659.22 120.78 L659.22 120.78 659.22 108.78" id="h1476982153" class="r"></path></g><g class="hrs"></g><g class="ts"><svg width="145" height="300" x="217.78" y="35.56" id="h4083311761" class="t"><rect height="40" width="145" class="th"></rect><text x="13" y="25" class="tht">show</text><rect height="260" width="145" class="t-bg" y="40"></rect><text x="13" y="61" class="tf pk">id<tspan x="132" class="ty">int</tspan></text><path d="M7,14A2,2 0 0,1 5,12A2,2 0 0,1 7,10A2,2 0 0,1 9,12A2,2 0 0,1 7,14M12.65,10C11.83,7.67 9.61,6 7, 6A6, 6 0 0, 0 1, 12A6, 6 0 0, 0 7, 18C9.61, 18 11.83, 16.33 12.65, 14H17V18H21V14H23V10H12.65Z" class="i pk" transform="translate(99, 48) scale(0.65)"></path><text x="13" y="86" class="tf">type<tspan x="132" class="ty">string</tspan></text><text x="13" y="111" class="tf">title<tspan x="132" class="ty">string</tspan></text><text x="13" y="136" class="tf">year<tspan x="132" class="ty">int?</tspan></text><text x="13" y="161" class="tf">trakt_id<tspan x="132" class="ty">int</tspan></text><text x="13" y="186" class="tf">trakt_slug<tspan x="132" class="ty">string?</tspan></text><text x="13" y="211" class="tf">tvdb_id<tspan x="132" class="ty">int?</tspan></text><text x="13" y="236" class="tf">imdb_id<tspan x="132" class="ty">string?</tspan></text><text x="13" y="261" class="tf">tmdb_id<tspan x="132" class="ty">int?</tspan></text><text x="13" y="286" class="tf">tvrage_id<tspan x="132" class="ty">int?</tspan></text></svg><svg width="106" height="125" x="547.22" y="57.78" id="h359681199" class="t"><rect height="40" width="106" class="th"></rect><text x="13" y="25" class="tht">episode</text><rect height="85" width="106" class="t-bg" y="40"></rect><text x="13" y="61" class="tf pk">id<tspan x="93" class="ty">int</tspan></text><path d="M7,14A2,2 0 0,1 5,12A2,2 0 0,1 7,10A2,2 0 0,1 9,12A2,2 0 0,1 7,14M12.65,10C11.83,7.67 9.61,6 7, 6A6, 6 0 0, 0 1, 12A6, 6 0 0, 0 7, 18C9.61, 18 11.83, 16.33 12.65, 14H17V18H21V14H23V10H12.65Z" class="i pk" transform="translate(60, 48) scale(0.65)"></path><text x="13" y="86" class="tf">type<tspan x="93" class="ty">string</tspan></text><text x="13" y="111" class="tf fk">show_id<tspan x="93" class="ty">int</tspan></text></svg><svg width="136" height="250" x="844.44" y="28.89" id="h1238333411" class="t"><rect height="40" width="136" class="th"></rect><text x="13" y="25" class="tht">movie</text><rect height="210" width="136" class="t-bg" y="40"></rect><text x="13" y="61" class="tf pk">id<tspan x="123" class="ty">int</tspan></text><path d="M7,14A2,2 0 0,1 5,12A2,2 0 0,1 7,10A2,2 0 0,1 9,12A2,2 0 0,1 7,14M12.65,10C11.83,7.67 9.61,6 7, 6A6, 6 0 0, 0 1, 12A6, 6 0 0, 0 7, 18C9.61, 18 11.83, 16.33 12.65, 14H17V18H21V14H23V10H12.65Z" class="i pk" transform="translate(90, 48) scale(0.65)"></path><text x="13" y="86" class="tf">type<tspan x="123" class="ty">string</tspan></text><text x="13" y="111" class="tf">title<tspan x="123" class="ty">string</tspan></text><text x="13" y="136" class="tf">year<tspan x="123" class="ty">int?</tspan></text><text x="13" y="161" class="tf">trakt_id<tspan x="123" class="ty">int</tspan></text><text x="13" y="186" class="tf">trakt_slug<tspan x="123" class="ty">int?</tspan></text><text x="13" y="211" class="tf">imdb_id<tspan x="123" class="ty">string?</tspan></text><text x="13" y="236" class="tf">tmdb_id<tspan x="123" class="ty">int?</tspan></text></svg><svg width="143" height="150" x="85.67" y="402.89" id="h889295603" class="t"><rect height="40" width="143" class="th"></rect><text x="13" y="25" class="tht">collected</text><rect height="110" width="143" class="t-bg" y="40"></rect><text x="13" y="61" class="tf pk">id<tspan x="130" class="ty">string</tspan></text><path d="M7,14A2,2 0 0,1 5,12A2,2 0 0,1 7,10A2,2 0 0,1 9,12A2,2 0 0,1 7,14M12.65,10C11.83,7.67 9.61,6 7, 6A6, 6 0 0, 0 1, 12A6, 6 0 0, 0 7, 18C9.61, 18 11.83, 16.33 12.65, 14H17V18H21V14H23V10H12.65Z" class="i pk" transform="translate(79, 48) scale(0.65)"></path><text x="13" y="86" class="tf">type<tspan x="130" class="ty">string?</tspan></text><text x="13" y="111" class="tf fk">media_id<tspan x="130" class="ty">int</tspan></text><text x="13" y="136" class="tf">collected_at<tspan x="130" class="ty">string</tspan></text></svg><svg width="136" height="175" x="409.44" y="397.78" id="h1129032390" class="t"><rect height="40" width="136" class="th"></rect><text x="13" y="25" class="tht">ratings</text><rect height="135" width="136" class="t-bg" y="40"></rect><text x="13" y="61" class="tf pk">id<tspan x="123" class="ty">string</tspan></text><path d="M7,14A2,2 0 0,1 5,12A2,2 0 0,1 7,10A2,2 0 0,1 9,12A2,2 0 0,1 7,14M12.65,10C11.83,7.67 9.61,6 7, 6A6, 6 0 0, 0 1, 12A6, 6 0 0, 0 7, 18C9.61, 18 11.83, 16.33 12.65, 14H17V18H21V14H23V10H12.65Z" class="i pk" transform="translate(72, 48) scale(0.65)"></path><text x="13" y="86" class="tf">type<tspan x="123" class="ty">string?</tspan></text><text x="13" y="111" class="tf fk">media_id<tspan x="123" class="ty">int</tspan></text><text x="13" y="136" class="tf">rating<tspan x="123" class="ty">int</tspan></text><text x="13" y="161" class="tf">rated_at<tspan x="123" class="ty">string?</tspan></text></svg><svg width="156" height="150" x="713.33" y="396.67" id="h3536283058" class="t"><rect height="40" width="156" class="th"></rect><text x="13" y="25" class="tht">watchlist</text><rect height="110" width="156" class="t-bg" y="40"></rect><text x="13" y="61" class="tf pk">id<tspan x="143" class="ty">int</tspan></text><path d="M7,14A2,2 0 0,1 5,12A2,2 0 0,1 7,10A2,2 0 0,1 9,12A2,2 0 0,1 7,14M12.65,10C11.83,7.67 9.61,6 7, 6A6, 6 0 0, 0 1, 12A6, 6 0 0, 0 7, 18C9.61, 18 11.83, 16.33 12.65, 14H17V18H21V14H23V10H12.65Z" class="i pk" transform="translate(110, 48) scale(0.65)"></path><text x="13" y="86" class="tf">type<tspan x="143" class="ty">string?</tspan></text><text x="13" y="111" class="tf fk">media_id<tspan x="143" class="ty">int</tspan></text><text x="13" y="136" class="tf">watchlisted_at<tspan x="143" class="ty">string</tspan></text></svg><svg width="140" height="150" x="1043.89" y="395.56" id="h271400508" class="t"><rect height="40" width="140" class="th"></rect><text x="13" y="25" class="tht">watchlog</text><rect height="110" width="140" class="t-bg" y="40"></rect><text x="13" y="61" class="tf pk">id<tspan x="127" class="ty">int</tspan></text><path d="M7,14A2,2 0 0,1 5,12A2,2 0 0,1 7,10A2,2 0 0,1 9,12A2,2 0 0,1 7,14M12.65,10C11.83,7.67 9.61,6 7, 6A6, 6 0 0, 0 1, 12A6, 6 0 0, 0 7, 18C9.61, 18 11.83, 16.33 12.65, 14H17V18H21V14H23V10H12.65Z" class="i pk" transform="translate(94, 48) scale(0.65)"></path><text x="13" y="86" class="tf">type<tspan x="127" class="ty">string?</tspan></text><text x="13" y="111" class="tf fk">media_id<tspan x="127" class="ty">int</tspan></text><text x="13" y="136" class="tf">watched_at<tspan x="127" class="ty">string</tspan></text></svg></g></g><text class="qdbd-link" x="10" y="20">www.quickdatabasediagrams.com</text></svg>